<svg xmlns="http://www.w3.org/2000/svg" viewBox="0 0 513 136"><defs><style>.cls-1{fill:#00673e}</style></defs><title>Rityta 1</title><g id="farr"><path class="cls-1" d="M124.75 38.16h245.93l8.92-9.09H12.81l18 9.07h88.86c-1 1-2 2.13-2.94 3.31H4.37l18.16 9.08h88.06a53.93 53.93 0 0 0-2.53 5.47H33.34l18.13 9.08h54s-.37 2.26-.49 3.3h-47l18.31 9.1h28.4c.06 1.13.17 2.23.29 3.31H82.82L101 89.84h6c3.07 9 8.74 15.67 15.19 18.46a16.26 16.26 0 0 0 1.5.66l-.08-.12c-7-9.72-6.95-19.57-4.35-28.06h-11c-.13-1.07-.22-2.18-.28-3.31h12.37a85.26 85.26 0 0 1 4.27-9.1h-16.38c.1-1 .4-3.25.41-3.3h17.85s2.45-3.49 3.19-4.51 3.73-4.6 3.73-4.6h-22a44.31 44.31 0 0 1 2.88-5.41h23.82l8.32-9.09h-25c1.07-1.16 2.19-2.27 3.31-3.3z"/><path class="cls-1" d="M195.67 77.84s.39 3.15 2.72 3.11 2.2-3.33 2.2-3.33L200.12 67a4.94 4.94 0 0 0-3.2-4.15c-4.15-1.34-10.67-3.46-17.72-3.5-6.31 0-15.39.82-23.25 7.52S144.27 84 143.71 90.54c-.43 5.2-.69 19.59 9.64 28.45 9.64 8.27 20.44 8.47 25.34 8.47a46.6 46.6 0 0 0 19.87-5.23s2.69-.3 2.3-6.88c-.13-2.2-1.26-2.07-1.26-2.07s-.52-.26-1.94 1.21-5.62 4.84-8.34 5.8-6.62 2.42-12.15-1c-5.87-3.67-9.34-7-13-17.85s-1.56-22.87.25-27.11 5.41-9.77 14.88-9.77 15.63 8.44 16.37 13.28zM261.94 89v23.09c.51 2.6 4.49 2.6 6.56 2.6 1.9 0 1.52 2.21.91 2.46-2.12 1.38-11.8 5.31-16.38 7.14-1.61.81-3.41 1.33-4.45.81-1.56-1.55-1.91-6-3-6-1.5-.83-8.77 6.21-18.71 6.13-6.22.52-12.45-2.08-15.56-7.27-2.59-4.15-2.21-10.11-1.12-12.36a18.19 18.19 0 0 1 4.19-5.7c5.7-5.79 20-8.09 30.4-10.17 0 0 .34-16.6-1.25-18.94-2.75-4-7.62-5.77-12.81-4.22-2.08 1-3.68 2.33-4.2 4.93s1 5.42 1 7.5a1.17 1.17 0 0 1-.49 1.17 131.46 131.46 0 0 1-12.58 5.41c-1.84.64-2.56-.07-2.79-.26-2.62-2.2-1.88-8-.88-10 3.25-6.25 9.64-10.17 15.34-12.25C235 60 244 57.21 252.86 61.89c9.85 5.71 9.08 17.25 9.08 27.11zm-30.22 26.7c4.16 1.52 13.05.86 13.11-3.24.21-2.59 0-11.68 0-17.89-8.18 1.17-16.8 4.67-17.91 12.45-.35 2.98 1.25 7.34 4.8 8.68zM378.51 115.31c0 3.15 4.09 3.41 6.68 4.44 2.21.74 2.47 3.89-.73 3.89h-29.23a1.68 1.68 0 0 1-.52-3.29c1.35-.6 6.75-1.73 6.75-6 0 0-.07-37.93-.07-39.93a4.35 4.35 0 0 0-1-3c-5.15-6.52-15.54-4.9-21.71.62a3.16 3.16 0 0 0-1.27 2.75v40.45c0 3.14 4 3.45 6.58 4.48 2.2.73 2.47 3.89-.72 3.89h-29.22a1.67 1.67 0 0 1-.51-3.28c1.34-.61 6.74-1.73 6.74-6.06V74.79a4.34 4.34 0 0 0-1-2.85c-5.12-5.9-12.51-4.84-20.78.35-1.06.65-1.55 1.18-1.56 1.92v41.14c0 3.14 4 3.37 6.54 4.4 2.21.74 2.47 3.89-.72 3.89h-29.22a1.68 1.68 0 0 1-.52-3.29c1.34-.6 6.8-1.66 6.8-6V73.43c0-4-6.73-1.47-7.78-3.76a2.82 2.82 0 0 1 1-2.94c4.33-2.13 10.27-4.44 14.91-6.27 2.6-1 5.54-1.94 5.54-1.94 1.69-.52 3.41-.72 3.41 1.19 0 2.73-.26 8.53 1.91 7.13 7.17-4.27 12-8.29 21.42-8.29a16.49 16.49 0 0 1 5.85 1 16.76 16.76 0 0 1 5.44 3.37c2 1.5 3 4.68 4 4.93a2.89 2.89 0 0 0 2.4-.71c2.6-1.59 4.64-3 5.3-3.43a56.11 56.11 0 0 1 8.9-4.42c9.28-2.49 14.31-1.12 18.42 1.37 4.31 2.65 5.68 4.79 7.2 8.39a11.56 11.56 0 0 1 .71 4.25zM415.54 115.38c0 3.15 4.07 3.4 6.67 4.44 2.2.73 2.46 3.89-.73 3.89h-29.22a1.67 1.67 0 0 1-.52-3.28c1.34-.61 6.74-1.74 6.74-6.06V66a.8.8 0 0 0-.77-.84h-11.29a.89.89 0 0 1-.65-1.59 43.39 43.39 0 0 1 3.34-4.12 2.09 2.09 0 0 1 1.52-.68h7.08c1-.2.77-.71.77-1.5V39.58c0-12.71 3.38-16.47 10.11-20.61 9.4-5.13 18.54-7.14 30.74-4.68 1.42.4 3 1.76 3 4.87v13.23c0 3.5-5.05 3.31-5.05 0-1-8.82-3.77-14.14-11.75-14.14-9.86 0-9.92 10.31-9.92 17.31V58c0 .65.33.78.71.78h18.48c.88 0 1.72.58 1 1.61a38.79 38.79 0 0 1-2.19 3.5c-.54 1-.63 1.27-2.88 1.28h-14.31a.77.77 0 0 0-.82.78z"/><path class="cls-1" d="M462.15 115.51c0 3.14 3.77 3.21 6.37 4.24 2.2.74 2.47 3.89-.72 3.89h-29.24a1.68 1.68 0 0 1-.52-3.29c1.34-.6 6.74-1.72 6.74-6V72.86c0-4.36-5.19-3.24-7.75-4.06-1.72-.78-1.42-3.37 1-4.11 8.43-3.24 14.92-5.31 21.27-7.35 2.9-.94 2.81 4.59 2.81 6.73zM480.44 30.77V28.7c.17-4.42-7.23-3.55-9.05-4.55-1.37-.43-1.37-2.85.06-3.67 3.41-1 20.12-5.59 22.63-6.28 2.7-.75 3.35-.25 3.35 2.69l.07 98.43c0 3.14 4.08 3.4 6.67 4.43 2.21.74 2.46 3.89-.71 3.89h-29.25c-2.14 0-2.18-2.63-.51-3.29 1.34-.6 6.74-1.72 6.74-6V30.77M451.13 52.79a9.25 9.25 0 1 0-9.25-9.25 9.25 9.25 0 0 0 9.25 9.25z"/></g></svg>